<svg width="32" height="46" viewBox="0 0 32 46" fill="none" xmlns="http://www.w3.org/2000/svg">
<path fill-rule="evenodd" clip-rule="evenodd" d="M0 33.8406L15.8741 25.7971C16.2124 25.773 30.2744 33.0193 31.8449 33.8406C31.7482 33.2609 19.2809 7.12561 17.9762 4.29952C17.6379 3.57488 17.2997 2.89855 16.9856 2.19807C16.6956 1.5942 16.1641 0.57971 15.9949 0C15.7292 0.193237 15.6083 0.57971 15.4151 0.966184L7.92498 16.8599C7.56256 17.657 0.0724846 33.3817 0 33.8406Z" fill="#262626"/>
<path d="M12.975 32.9941H11.332V43.1874H12.975V32.9941Z" fill="#262626"/>
<path d="M16.7924 31.2812H15.0527V45.3151H16.7924V31.2812Z" fill="#262626"/>
<path d="M20.464 32.9707H18.7969V43.1639H20.464V32.9707Z" fill="#262626"/>
</svg>
